<svg width="800" height="800" viewBox="0 0 800 800" fill="none" xmlns="http://www.w3.org/2000/svg">
<style>
path {
    fill: unset;
}
@media (prefers-color-scheme: dark) {
    path {
        fill: #fff;
    }
}
</style>
<path d="M382 38.8884V601.112C382 647.593 453.85 647.666 453.85 601.112V38.8884C453.85 -7.59334 382 -7.66557 382 38.8884ZM786.3 200.653C714.45 234.35 642.6 268.083 570.75 301.779C564.75 304.596 565.002 314.492 570.75 317.382C640.193 352.306 709.672 387.194 779.115 422.119C789.425 427.284 798.55 411.717 788.168 406.517C718.725 371.592 649.246 336.704 579.803 301.779V317.382C651.653 283.685 723.503 249.952 795.353 216.256C805.843 211.344 796.718 195.778 786.3 200.653Z" fill="#67BECE"/>
<path d="M0.451524 400.509C41.2128 593.97 196.027 747.365 389.804 785.848C422.298 792.292 455.511 795.928 488.652 796C511.765 796.036 511.801 760.036 488.652 760C308.641 759.784 142.325 653.838 67.2367 489.608C52.8229 458.108 42.2193 424.808 35.1022 390.933C30.3216 368.289 -4.32912 377.865 0.451524 400.509Z" fill="#3F54A3"/>
</svg>
